<?xml version="1.0" encoding="utf-8"?>
<!-- Generator: Adobe Illustrator 16.0.0, SVG Export Plug-In . SVG Version: 6.00 Build 0)  -->
<!DOCTYPE svg PUBLIC "-//W3C//DTD SVG 1.1//EN" "http://www.w3.org/Graphics/SVG/1.1/DTD/svg11.dtd">
<svg version="1.1" id="paper_plane" xmlns="http://www.w3.org/2000/svg" xmlns:xlink="http://www.w3.org/1999/xlink" x="0px"
	 y="0px" width="600px" height="450px" viewBox="0 0 600 450" enable-background="new 0 0 600 450" xml:space="preserve">
<g>
	<g>
		<g>
			<defs>
				<polygon id="SVGID_1_" points="245.057,251.507 425.649,96.523 260.791,209.872 				"/>
			</defs>
			<clipPath id="SVGID_2_">
				<use xlink:href="#SVGID_1_"  overflow="visible"/>
			</clipPath>
			<rect x="245.057" y="96.523" clip-path="url(#SVGID_2_)" fill="#751480" width="180.592" height="154.983"/>
			<path clip-path="url(#SVGID_2_)" fill="#751480" d="M244.057,231.442V153.08h-6.084c12.348-24.085,30.215-45.775,52.293-63.991
				v6.435h136.383v156.983H244.057V231.442z"/>
			<path clip-path="url(#SVGID_2_)" fill="#751480" d="M244.057,231.442v-77.764h-4.368c12.253-23.902,29.984-45.426,51.894-63.503
				v5.348h135.066v156.983H244.057V231.442z"/>
			<path clip-path="url(#SVGID_2_)" fill="#761580" d="M244.057,231.442v-77.166h-2.651c12.159-23.717,29.753-45.076,51.494-63.014
				v4.261h133.749v156.983H244.057V231.442z"/>
			<path clip-path="url(#SVGID_2_)" fill="#761580" d="M244.057,231.442v-76.568h-0.935c12.065-23.534,29.523-44.727,51.096-62.525
				v3.174h132.432v156.983H244.057V231.442z"/>
			<path clip-path="url(#SVGID_2_)" fill="#771680" d="M244.057,231.442v-39.334v-27.772h-3.455c1.327-2.989,2.74-5.944,4.236-8.863
				c11.97-23.35,29.292-44.377,50.697-62.037v2.088h131.114v156.983H244.057V231.442z"/>
			<path clip-path="url(#SVGID_2_)" fill="#771680" d="M244.057,231.442v-39.024v-18.557h-5.394
				c2.285-6.063,4.922-11.999,7.892-17.79c11.876-23.166,29.062-44.028,50.297-61.549v1.001h129.798v156.983H244.057V231.442z"/>
			<path clip-path="url(#SVGID_2_)" fill="#781780" d="M244.057,231.442v-38.714v-18.41h-3.616
				c2.268-6.015,4.884-11.903,7.83-17.649c11.782-22.982,28.83-43.679,49.897-61.061c2.634-2.172,5.33-4.293,8.087-6.36v6.275
				h120.394v156.983H244.057V231.442z"/>
			<path clip-path="url(#SVGID_2_)" fill="#781780" d="M244.057,231.442v-38.405v-18.262h-1.837
				c2.25-5.967,4.845-11.809,7.767-17.508c11.688-22.798,28.6-43.33,49.499-60.572c2.612-2.155,5.287-4.259,8.021-6.31v5.138
				h119.142v156.983H244.057V231.442z"/>
			<path clip-path="url(#SVGID_2_)" fill="#791881" d="M244.057,231.442v-38.095h-5.703c3.052-12.305,7.553-24.174,13.35-35.481
				c11.594-22.615,28.37-42.98,49.1-60.083c2.591-2.138,5.245-4.225,7.957-6.259v4h117.89v156.983H244.057V231.442z"/>
			<path clip-path="url(#SVGID_2_)" fill="#7A1881" d="M244.057,231.442v-37.785h-3.878c3.027-12.205,7.492-23.978,13.241-35.193
				c11.499-22.431,28.139-42.631,48.701-59.595c2.569-2.121,5.201-4.19,7.892-6.208v2.862h116.637v156.983H244.057V231.442z"/>
			<path clip-path="url(#SVGID_2_)" fill="#7A1981" d="M237.424,231.442c0-51.349,25.227-97.836,66.013-131.487
				c2.549-2.103,5.159-4.156,7.828-6.157v1.725h115.384v156.983H244.057v-21.064H237.424z"/>
			<path clip-path="url(#SVGID_2_)" fill="#7B1981" d="M239.287,231.442c0-50.925,25.019-97.028,65.468-130.4
				c5.056-4.171,10.354-8.144,15.873-11.903v6.384h106.021v156.983H244.057v-21.064H239.287z"/>
			<path clip-path="url(#SVGID_2_)" fill="#7C1A81" d="M241.15,231.442c0-50.5,24.81-96.219,64.922-129.313
				c5.014-4.137,10.267-8.076,15.74-11.803v5.198h104.837v156.983H244.057v-21.064H241.15z"/>
			<path clip-path="url(#SVGID_2_)" fill="#7C1B81" d="M243.012,231.442c0-50.076,24.602-95.411,64.376-128.227
				c4.973-4.102,10.182-8.009,15.609-11.704v4.012h103.651v156.983H245.545v6.552c-0.556-3.002-1.022-6.027-1.397-9.075
				C243.396,243.887,243.012,237.701,243.012,231.442z"/>
			<path clip-path="url(#SVGID_2_)" fill="#7D1B81" d="M244.875,231.442c0-49.651,24.393-94.602,63.831-127.14
				c4.93-4.067,10.095-7.94,15.477-11.605v2.826h102.467v156.983H247.386v6.317c-0.551-2.976-1.014-5.976-1.386-8.998
				C245.256,243.781,244.875,237.648,244.875,231.442z"/>
			<path clip-path="url(#SVGID_2_)" fill="#7E1C81" d="M246.738,231.442c0-49.227,24.184-93.793,63.285-126.053
				c4.887-4.033,10.008-7.873,15.344-11.506v1.64h101.282v156.983H249.228v6.084c-0.547-2.951-1.005-5.926-1.374-8.922
				C247.116,243.676,246.738,237.596,246.738,231.442z"/>
			<path clip-path="url(#SVGID_2_)" fill="#7F1D81" d="M248.601,231.442c0-48.803,23.976-92.985,62.739-124.967
				c4.846-3.998,9.922-7.805,15.212-11.406v0.454h100.098v156.983H251.068v5.85c-0.542-2.926-0.996-5.874-1.362-8.845
				C248.976,243.57,248.601,237.543,248.601,231.442z"/>
			<path clip-path="url(#SVGID_2_)" fill="#7F1D82" d="M250.463,231.442c0-48.378,23.767-92.176,62.194-123.88
				c4.804-3.963,9.836-7.737,15.079-11.308c2.622-1.785,5.297-3.52,8.021-5.201v4.469h90.892v156.983H252.91v5.615
				c-0.537-2.899-0.988-5.823-1.351-8.768C250.834,243.465,250.463,237.489,250.463,231.442z"/>
			<path clip-path="url(#SVGID_2_)" fill="#801E82" d="M252.326,231.442c0-47.954,23.559-91.368,61.648-122.793
				c4.761-3.928,9.749-7.669,14.947-11.208c2.599-1.77,5.25-3.489,7.951-5.155v3.238h89.776v156.983H254.751v5.382
				c-0.532-2.875-0.979-5.772-1.338-8.691C252.694,243.359,252.326,237.437,252.326,231.442z"/>
			<path clip-path="url(#SVGID_2_)" fill="#811F82" d="M254.188,231.442c0-47.529,23.351-90.56,61.103-121.707
				c9.438-7.787,19.777-14.831,30.875-21.017v6.805h80.483v156.983H256.592v5.147c-0.528-2.849-0.971-5.721-1.327-8.614
				C254.553,243.254,254.188,237.383,254.188,231.442z"/>
			<path clip-path="url(#SVGID_2_)" fill="#822082" d="M256.051,231.442c0-47.105,23.142-89.751,60.557-120.62
				c9.354-7.717,19.601-14.699,30.6-20.83v5.531h79.441v156.983H258.434v4.913c-0.523-2.823-0.962-5.67-1.315-8.537
				C256.413,243.148,256.051,237.33,256.051,231.442z"/>
			<path clip-path="url(#SVGID_2_)" fill="#832082" d="M257.914,231.442c0-46.681,22.934-88.942,60.012-119.533
				c9.27-7.648,19.424-14.566,30.324-20.642v4.256h78.399v156.983H260.274v4.68c-0.518-2.799-0.953-5.619-1.303-8.46
				C258.272,243.043,257.914,237.277,257.914,231.442z"/>
			<path clip-path="url(#SVGID_2_)" fill="#832182" d="M259.776,231.442c0-46.256,22.725-88.134,59.466-118.447
				c9.186-7.578,19.247-14.434,30.049-20.454v2.982h77.358v156.983H262.116v4.445c-0.514-2.772-0.945-5.567-1.292-8.383
				C260.132,242.938,259.776,237.225,259.776,231.442z"/>
			<path clip-path="url(#SVGID_2_)" fill="#842282" d="M261.639,231.442c0-45.832,22.516-87.325,58.92-117.36
				c9.102-7.509,19.071-14.302,29.772-20.267v1.708h76.317v156.983H263.957v4.211c-0.509-2.747-0.936-5.517-1.279-8.306
				C261.991,242.832,261.639,237.171,261.639,231.442z"/>
			<path clip-path="url(#SVGID_2_)" fill="#852282" d="M263.502,231.442c0-45.408,22.308-86.517,58.375-116.273
				c9.018-7.439,18.894-14.169,29.497-20.079v0.434h75.275v156.983H265.798v3.978c-0.504-2.722-0.927-5.466-1.268-8.229
				C263.851,242.727,263.502,237.118,263.502,231.442z"/>
			<path clip-path="url(#SVGID_2_)" fill="#862382" d="M265.364,231.442c0-44.983,22.1-85.708,57.83-115.187
				c8.933-7.37,18.717-14.037,29.221-19.892c2.626-1.464,5.298-2.876,8.011-4.237v3.396h66.224v156.983H267.64v3.743
				c-0.499-2.696-0.919-5.414-1.256-8.152C265.71,242.621,265.364,237.065,265.364,231.442z"/>
			<path clip-path="url(#SVGID_2_)" fill="#872483" d="M267.228,231.442c0-44.559,21.891-84.899,57.284-114.1
				c8.848-7.3,18.54-13.904,28.945-19.704c5.202-2.9,10.583-5.599,16.125-8.083v5.967h57.067v156.983H269.48v3.509
				c-0.495-2.671-0.91-5.363-1.244-8.075C267.569,242.516,267.228,237.012,267.228,231.442z"/>
			<path clip-path="url(#SVGID_2_)" fill="#872583" d="M269.09,231.442c0-44.135,21.683-84.091,56.738-113.014
				c8.764-7.23,18.364-13.771,28.67-19.516c5.152-2.873,10.482-5.545,15.973-8.006v4.616h56.179v156.983H271.322v3.275
				c-0.49-2.646-0.901-5.313-1.232-7.999C269.429,242.41,269.09,236.959,269.09,231.442z"/>
			<path clip-path="url(#SVGID_2_)" fill="#882683" d="M270.953,231.442c0-43.71,21.474-83.282,56.193-111.927
				c8.68-7.161,18.188-13.639,28.394-19.329c5.104-2.844,10.382-5.492,15.818-7.928v3.265h55.292v156.983H273.163v3.041
				c-0.485-2.62-0.893-5.261-1.22-7.922C271.288,242.305,270.953,236.906,270.953,231.442z"/>
			<path clip-path="url(#SVGID_2_)" fill="#892683" d="M272.815,231.442c0-43.286,21.266-82.474,55.647-110.84
				c8.595-7.092,18.01-13.507,28.118-19.141c5.054-2.817,10.28-5.438,15.665-7.852v1.914h54.403v156.983H275.004v2.807
				c-0.48-2.594-0.884-5.21-1.208-7.845C273.147,242.199,272.815,236.853,272.815,231.442z"/>
			<path clip-path="url(#SVGID_2_)" fill="#8A2783" d="M274.678,231.442c0-42.861,21.057-81.665,55.102-109.753
				c8.512-7.022,17.835-13.375,27.843-18.953c5.005-2.79,10.181-5.385,15.512-7.774v0.562h53.516v156.983H276.846v2.573
				c-0.476-2.569-0.875-5.159-1.196-7.768C275.007,242.094,274.678,236.8,274.678,231.442z"/>
			<path clip-path="url(#SVGID_2_)" fill="#8B2883" d="M276.541,231.442c0-42.437,20.849-80.856,54.556-108.667
				c16.854-13.905,36.923-25.158,59.207-32.934v5.682h36.346v156.983H278.687v2.339c-0.471-2.544-0.866-5.107-1.184-7.69
				C276.866,241.988,276.541,236.747,276.541,231.442z"/>
			<path clip-path="url(#SVGID_2_)" fill="#8C2983" d="M278.403,231.442c0-42.013,20.64-80.048,54.011-107.58
				c16.686-13.766,36.553-24.906,58.615-32.605v4.266h35.62v156.983H280.528v2.104c-0.466-2.518-0.858-5.057-1.172-7.613
				C278.726,241.883,278.403,236.693,278.403,231.442z"/>
			<path clip-path="url(#SVGID_2_)" fill="#8D2A83" d="M280.266,231.442c0-41.588,20.432-79.239,53.466-106.494
				c16.517-13.627,36.184-24.654,58.022-32.275v2.85h34.896v156.983h-144.28v1.871c-0.462-2.493-0.849-5.006-1.161-7.537
				C280.585,241.777,280.266,236.641,280.266,231.442z"/>
			<path clip-path="url(#SVGID_2_)" fill="#8E2A84" d="M282.128,231.442c0-41.164,20.223-78.431,52.92-105.407
				c16.348-13.488,35.814-24.403,57.43-31.946v1.434h34.171v156.983H284.21v1.637c-0.457-2.467-0.84-4.954-1.148-7.46
				C282.444,241.672,282.128,236.588,282.128,231.442z"/>
			<path clip-path="url(#SVGID_2_)" fill="#8F2B84" d="M283.991,231.442c0-40.74,20.015-77.622,52.374-104.32
				c16.18-13.349,35.445-24.151,56.839-31.617v0.018h33.445v156.983H286.052v1.402c-0.452-2.441-0.832-4.903-1.138-7.383
				C284.304,241.566,283.991,236.534,283.991,231.442z"/>
			<path clip-path="url(#SVGID_2_)" fill="#8F2C84" d="M285.854,231.442c0-40.315,19.806-76.814,51.829-103.233
				c16.011-13.21,35.076-23.9,56.247-31.288c5.292-1.847,10.717-3.488,16.257-4.91v3.512h16.463v156.983H287.893v1.169
				c-0.447-2.417-0.823-4.853-1.125-7.307C286.163,241.461,285.854,236.481,285.854,231.442z"/>
			<path clip-path="url(#SVGID_2_)" fill="#902D84" d="M287.717,231.442c0-39.891,19.598-76.005,51.283-102.147
				c15.842-13.071,34.707-23.648,55.654-30.958c10.474-3.655,21.468-6.493,32.866-8.417l-0.871,5.604v156.983H289.734v0.935
				c-0.443-2.391-0.814-4.801-1.113-7.229C288.022,241.355,287.717,236.429,287.717,231.442z"/>
			<path clip-path="url(#SVGID_2_)" fill="#912E84" d="M289.579,231.442c0-39.467,19.39-75.197,50.737-101.06
				c15.674-12.932,34.338-23.397,55.063-30.629c10.362-3.616,21.24-6.424,32.518-8.328l-1.247,4.098v156.983H291.575v0.7
				c-0.438-2.365-0.806-4.75-1.102-7.152C289.882,241.25,289.579,236.375,289.579,231.442z"/>
			<path clip-path="url(#SVGID_2_)" fill="#922F84" d="M291.442,231.442c0-39.042,19.181-74.388,50.192-99.974
				c15.505-12.792,33.969-23.145,54.471-30.299c10.251-3.577,21.011-6.355,32.167-8.238l-1.622,2.592v156.983H293.416v0.467
				c-0.433-2.341-0.797-4.699-1.089-7.076C291.741,241.145,291.442,236.322,291.442,231.442z"/>
			<path clip-path="url(#SVGID_2_)" fill="#932F84" d="M293.305,231.442c0-38.618,18.972-73.58,49.646-98.887
				c15.337-12.654,33.6-22.894,53.878-29.97c10.14-3.539,20.783-6.286,31.817-8.149l-1.997,1.087v156.983H295.258v0.232
				c-0.429-2.314-0.789-4.647-1.078-6.999C293.601,241.039,293.305,236.27,293.305,231.442z"/>
			<path clip-path="url(#SVGID_2_)" fill="#943085" d="M295.167,231.442c0-38.193,18.764-72.771,49.101-97.8
				c15.169-12.515,33.23-22.643,53.287-29.641c10.027-3.5,20.555-6.217,31.467-8.059h-2.372v156.564H298.573v6.81
				C296.34,250.313,295.167,240.99,295.167,231.442z"/>
			<path clip-path="url(#SVGID_2_)" fill="#953185" d="M297.03,231.442c0-37.769,18.555-71.962,48.555-96.713
				c15-12.375,32.86-22.391,52.694-29.312c9.916-3.46,20.326-6.148,31.118-7.97h-2.748v155.059H300.398v6.5
				C298.189,250.104,297.03,240.885,297.03,231.442z"/>
			<path clip-path="url(#SVGID_2_)" fill="#963285" d="M298.893,231.442c0-37.345,18.347-71.154,48.01-95.627
				c14.831-12.236,32.492-22.139,52.102-28.982c9.806-3.422,20.099-6.079,30.769-7.88h-3.123v153.554H302.223v6.19
				C300.039,249.894,298.893,240.778,298.893,231.442z"/>
			<path clip-path="url(#SVGID_2_)" fill="#973385" d="M300.755,231.442c0-36.92,18.139-70.345,47.464-94.54
				c14.663-12.098,32.123-21.888,51.511-28.653c9.694-3.383,19.87-6.01,30.419-7.791h-3.499v152.048H304.048v5.881
				C301.889,249.684,300.755,240.672,300.755,231.442z"/>
			<path clip-path="url(#SVGID_2_)" fill="#983485" d="M302.618,231.442c0-36.496,17.93-69.537,46.918-93.454
				c14.495-11.958,31.753-21.636,50.918-28.323c9.583-3.344,19.642-5.94,30.069-7.701h-3.874v150.542H305.872v5.571
				C303.738,249.475,302.618,240.566,302.618,231.442z"/>
			<path clip-path="url(#SVGID_2_)" fill="#993585" d="M304.48,231.442c0-36.071,17.722-68.728,46.373-92.367
				c14.326-11.819,31.384-21.384,50.326-27.995c9.471-3.305,19.412-5.871,29.72-7.611h-4.25v149.037H307.697v5.261
				C305.588,249.265,304.48,240.46,304.48,231.442z"/>
			<path clip-path="url(#SVGID_2_)" fill="#9A3585" d="M306.343,231.442c0-35.647,17.513-67.919,45.827-91.28
				c14.158-11.68,31.016-21.132,49.734-27.665c9.359-3.266,19.185-5.802,29.37-7.522h-4.625v147.531H309.521v4.951
				C307.438,249.055,306.343,240.354,306.343,231.442z"/>
			<path clip-path="url(#SVGID_2_)" fill="#9B3685" d="M308.206,231.442c0-35.223,17.304-67.111,45.281-90.193
				c13.989-11.542,30.646-20.881,49.143-27.335c9.247-3.228,18.956-5.733,29.02-7.433h-5v146.026H311.347v4.642
				C309.287,248.845,308.206,240.248,308.206,231.442z"/>
			<path clip-path="url(#SVGID_2_)" fill="#9C3786" d="M310.068,231.442c0-34.798,17.096-66.303,44.736-89.107
				c13.82-11.402,30.276-20.629,48.55-27.006c9.137-3.188,18.728-5.664,28.671-7.343h-5.376v144.52H313.172v4.332
				C311.137,248.636,310.068,240.142,310.068,231.442z"/>
			<path clip-path="url(#SVGID_2_)" fill="#9D3886" d="M311.932,231.442c0-34.374,16.887-65.494,44.19-88.02
				c13.651-11.263,29.907-20.378,47.958-26.677c9.024-3.15,18.499-5.595,28.32-7.253h-5.751v143.015H314.996v4.022
				C312.986,248.426,311.932,240.035,311.932,231.442z"/>
			<path clip-path="url(#SVGID_2_)" fill="#9E3986" d="M313.794,231.442c0-33.95,16.679-64.685,43.646-86.934
				c13.482-11.124,29.537-20.126,47.365-26.347c8.914-3.111,18.271-5.526,27.971-7.164h-6.126v141.509H316.821v3.713
				C314.836,248.216,313.794,239.93,313.794,231.442z"/>
			<path clip-path="url(#SVGID_2_)" fill="#9F3A86" d="M315.656,231.442c0-33.525,16.471-63.877,43.1-85.847
				c13.314-10.985,29.169-19.875,46.773-26.018c8.803-3.072,18.043-5.457,27.622-7.074h-6.502v140.003H318.646v3.402
				C316.686,248.007,315.656,239.823,315.656,231.442z"/>
			<path clip-path="url(#SVGID_2_)" fill="#A03B86" d="M317.52,231.442c0-33.101,16.262-63.068,42.554-84.76
				c13.146-10.846,28.8-19.623,46.182-25.689c8.69-3.033,17.813-5.388,27.271-6.984h-6.877v138.498H320.471v3.093
				C318.535,247.797,317.52,239.718,317.52,231.442z"/>
			<path clip-path="url(#SVGID_2_)" fill="#A13C86" d="M319.382,231.442c0-32.677,16.054-62.26,42.009-83.673
				c12.977-10.707,28.43-19.372,45.589-25.359c4.29-1.497,8.687-2.827,13.178-3.979c2.245-0.576,4.515-1.108,6.806-1.594h-0.313
				v135.671H322.296v2.783C320.385,247.587,319.382,239.611,319.382,231.442z"/>
			<path clip-path="url(#SVGID_2_)" fill="#A23D87" d="M321.244,231.442c0-32.252,15.846-61.451,41.463-82.587
				c12.81-10.568,28.062-19.12,44.998-25.03c4.233-1.478,8.573-2.79,13.006-3.927c2.217-0.569,4.456-1.094,6.718-1.574h-0.779
				v134.183H324.121v2.474C322.234,247.378,321.244,239.505,321.244,231.442z"/>
			<path clip-path="url(#SVGID_2_)" fill="#A33E87" d="M323.107,231.442c0-31.828,15.637-60.643,40.917-81.5
				c12.641-10.429,27.692-18.869,44.405-24.701c4.179-1.458,8.461-2.753,12.835-3.875c2.188-0.561,4.397-1.08,6.63-1.553h-1.245
				v132.694H325.945v2.164C324.084,247.168,323.107,239.399,323.107,231.442z"/>
			<path clip-path="url(#SVGID_2_)" fill="#A43F87" d="M324.97,231.442c0-31.403,15.429-59.834,40.372-80.414
				c12.472-10.29,27.322-18.617,43.813-24.372c4.123-1.438,8.349-2.716,12.664-3.824c2.158-0.554,4.339-1.065,6.541-1.533h-1.71
				v131.206h-98.879v1.854C325.935,246.958,324.97,239.293,324.97,231.442z"/>
			<path clip-path="url(#SVGID_2_)" fill="#A54087" d="M326.832,231.442c0-30.979,15.22-59.025,39.826-79.327
				c12.304-10.151,26.953-18.365,43.222-24.042c4.067-1.419,8.235-2.68,12.493-3.773c2.129-0.546,4.279-1.05,6.452-1.512h-2.176
				v129.718h-97.054v1.545C327.783,246.748,326.832,239.187,326.832,231.442z"/>
			<path clip-path="url(#SVGID_2_)" fill="#A64087" d="M328.695,231.442c0-30.555,15.011-58.217,39.28-78.24
				c12.135-10.012,26.584-18.113,42.629-23.713c4.012-1.399,8.122-2.643,12.322-3.721c2.1-0.539,4.222-1.036,6.364-1.491h-2.642
				v128.229H331.42v1.234C329.634,246.539,328.695,239.081,328.695,231.442z"/>
			<path clip-path="url(#SVGID_2_)" fill="#A74187" d="M330.558,231.442c0-30.13,14.803-57.408,38.735-77.153
				c11.967-9.873,26.215-17.862,42.037-23.384c3.955-1.38,8.01-2.606,12.15-3.669c2.07-0.531,4.163-1.021,6.275-1.47h-3.106v126.741
				h-93.405v0.925C331.483,246.329,330.558,238.975,330.558,231.442z"/>
			<path clip-path="url(#SVGID_2_)" fill="#A84287" d="M332.42,231.442c0-29.706,14.595-56.6,38.189-76.067
				c11.798-9.733,25.846-17.61,41.445-23.054c3.9-1.361,7.896-2.569,11.979-3.617c2.042-0.524,4.104-1.007,6.188-1.45h-3.572
				v125.252h-91.58v0.615C333.333,246.119,332.42,238.868,332.42,231.442z"/>
			<path clip-path="url(#SVGID_2_)" fill="#A94388" d="M334.283,231.442c0-29.282,14.386-55.791,37.645-74.98
				c11.629-9.595,25.476-17.359,40.853-22.725c3.844-1.341,7.783-2.533,11.808-3.565c2.013-0.517,4.046-0.993,6.1-1.429h-4.038
				v123.764h-89.755v0.306C335.183,245.91,334.283,238.763,334.283,231.442z"/>
			<path clip-path="url(#SVGID_2_)" fill="#AA4488" d="M336.146,231.442c0-28.857,14.177-54.982,37.098-73.894
				c11.461-9.456,25.107-17.107,40.261-22.396c3.788-1.322,7.671-2.496,11.638-3.514c1.982-0.509,3.986-0.979,6.01-1.408h-4.503
				v122.275h-86.516v5.052c-0.521-1.67-0.993-3.355-1.415-5.056C337.032,245.7,336.146,238.656,336.146,231.442z"/>
			<path clip-path="url(#SVGID_2_)" fill="#AB4588" d="M338.009,231.442c0-28.433,13.969-54.174,36.553-72.807
				c11.292-9.316,24.737-16.856,39.669-22.066c3.732-1.302,7.558-2.459,11.465-3.462c1.955-0.502,3.929-0.964,5.923-1.388h-4.969
				v120.787h-84.712v4.668c-0.513-1.646-0.979-3.306-1.394-4.981C338.882,245.49,338.009,238.551,338.009,231.442z"/>
			<path clip-path="url(#SVGID_2_)" fill="#AC4688" d="M339.871,231.442c0-28.009,13.76-53.365,36.008-71.72
				c11.123-9.177,24.368-16.604,39.076-21.737c3.677-1.283,7.445-2.423,11.295-3.411c1.925-0.494,3.869-0.95,5.834-1.367h-5.435
				v119.299h-82.908v4.283c-0.505-1.62-0.963-3.256-1.372-4.907C340.731,245.28,339.871,238.444,339.871,231.442z"/>
			<path clip-path="url(#SVGID_2_)" fill="#AD4788" d="M341.734,231.442c0-27.584,13.551-52.557,35.461-70.633
				c10.955-9.039,24-16.353,38.484-21.408c3.621-1.264,7.333-2.386,11.124-3.359h-0.154v116.464h-81.104v3.899
				c-0.497-1.596-0.948-3.207-1.352-4.833C342.581,245.071,341.734,238.338,341.734,231.442z"/>
			<path clip-path="url(#SVGID_2_)" fill="#AE4888" d="M343.597,231.442c0-27.16,13.343-51.748,34.916-69.547
				c10.786-8.899,23.63-16.101,37.893-21.078c3.565-1.244,7.22-2.349,10.952-3.307h-0.708v114.997h-79.3v3.516
				c-0.49-1.571-0.934-3.158-1.331-4.759C344.431,244.861,343.597,238.232,343.597,231.442z"/>
			<path clip-path="url(#SVGID_2_)" fill="#AF4988" d="M345.459,231.442c0-26.735,13.135-50.939,34.371-68.46
				c10.617-8.76,23.261-15.85,37.301-20.749c3.509-1.225,7.106-2.313,10.781-3.255h-1.263v113.529h-77.496v3.132
				c-0.481-1.547-0.919-3.108-1.31-4.685C346.28,244.651,345.459,238.126,345.459,231.442z"/>
			<path clip-path="url(#SVGID_2_)" fill="#B04A89" d="M347.322,231.442c0-26.311,12.926-50.131,33.824-67.374
				c10.45-8.621,22.893-15.598,36.709-20.419c3.454-1.205,6.994-2.276,10.61-3.204h-1.816v112.061h-75.691v2.747
				c-0.475-1.521-0.905-3.059-1.29-4.609C348.13,244.441,347.322,238.02,347.322,231.442z"/>
			<path clip-path="url(#SVGID_2_)" fill="#B24B89" d="M349.185,231.442c0-25.887,12.718-49.323,33.279-66.287
				c10.28-8.482,22.522-15.346,36.116-20.09c3.398-1.186,6.881-2.239,10.439-3.152h-2.37v110.594h-72.356v6.812
				c-1.106-2.936-2.043-5.933-2.8-8.983C349.979,244.232,349.185,237.914,349.185,231.442z"/>
			<path clip-path="url(#SVGID_2_)" fill="#B34C89" d="M351.047,231.442c0-25.462,12.51-48.514,32.734-65.2
				c10.112-8.343,22.153-15.095,35.524-19.761c3.343-1.167,6.769-2.203,10.268-3.101h-2.924v109.126h-70.577v6.354
				c-1.089-2.887-2.01-5.835-2.754-8.836C351.829,244.022,351.047,237.808,351.047,231.442z"/>
			<path clip-path="url(#SVGID_2_)" fill="#B44D89" d="M352.91,231.442c0-25.038,12.301-47.706,32.188-64.113
				c9.943-8.204,21.784-14.843,34.932-19.432c3.287-1.147,6.655-2.166,10.097-3.049h-3.478v107.658h-68.799v5.897
				c-1.07-2.839-1.976-5.738-2.708-8.689C353.679,243.813,352.91,237.701,352.91,231.442z"/>
			<path clip-path="url(#SVGID_2_)" fill="#B54E89" d="M354.772,231.442c0-24.614,12.093-46.897,31.643-63.027
				c9.775-8.065,21.415-14.591,34.341-19.102c3.23-1.127,6.543-2.129,9.926-2.997h-4.032v106.19h-67.02v5.44
				c-1.052-2.791-1.942-5.641-2.662-8.542C355.528,243.604,354.772,237.596,354.772,231.442z"/>
			<path clip-path="url(#SVGID_2_)" fill="#B64F89" d="M356.635,231.442c0-24.189,11.885-46.088,31.098-61.94
				c9.606-7.926,21.046-14.34,33.748-18.772c3.176-1.108,6.43-2.092,9.755-2.945h-4.586v104.723h-65.241v4.983
				c-1.033-2.742-1.908-5.543-2.616-8.395C357.378,243.394,356.635,237.489,356.635,231.442z"/>
			<path clip-path="url(#SVGID_2_)" fill="#B7508A" d="M358.498,231.442c0-23.765,11.676-45.28,30.552-60.854
				c9.438-7.787,20.676-14.088,33.155-18.443c3.12-1.088,6.317-2.056,9.584-2.894h-5.14v103.255h-63.462v4.526
				c-1.016-2.694-1.875-5.446-2.57-8.247C359.228,243.184,358.498,237.383,358.498,231.442z"/>
			<path clip-path="url(#SVGID_2_)" fill="#B8518A" d="M360.361,231.442c0-23.34,11.466-44.471,30.005-59.767
				c9.271-7.648,20.308-13.837,32.564-18.114c3.063-1.069,6.204-2.019,9.412-2.842h-5.693v101.787h-61.683v4.07
				c-0.998-2.647-1.843-5.35-2.525-8.101C361.077,242.975,360.361,237.277,360.361,231.442z"/>
			<path clip-path="url(#SVGID_2_)" fill="#B9528A" d="M362.223,231.442c0-22.916,11.259-43.663,29.461-58.68
				c9.102-7.509,19.938-13.585,31.972-17.785c3.009-1.05,6.092-1.982,9.241-2.791h-6.247v100.32h-59.904v3.613
				c-0.979-2.599-1.809-5.252-2.479-7.953C362.927,242.765,362.223,237.171,362.223,231.442z"/>
			<path clip-path="url(#SVGID_2_)" fill="#BA538A" d="M364.086,231.442c0-22.492,11.05-42.854,28.915-57.593
				c8.933-7.37,19.568-13.334,31.38-17.456c2.952-1.03,5.979-1.945,9.07-2.739h-6.802v98.852h-58.125v3.156
				c-0.962-2.551-1.775-5.155-2.433-7.806C364.776,242.555,364.086,237.065,364.086,231.442z"/>
			<path clip-path="url(#SVGID_2_)" fill="#BB548A" d="M365.949,231.442c0-22.067,10.841-42.045,28.369-56.507
				c8.764-7.23,19.199-13.082,30.787-17.126c1.448-0.505,2.915-0.982,4.398-1.431h-2.854v96.128h-56.347v2.699
				c-0.943-2.503-1.741-5.058-2.387-7.659C366.626,242.346,365.949,236.959,365.949,231.442z"/>
			<path clip-path="url(#SVGID_2_)" fill="#BD558A" d="M367.811,231.442c0-21.643,10.633-41.237,27.824-55.42
				c8.596-7.092,18.831-12.831,30.196-16.797c1.42-0.496,2.858-0.964,4.313-1.403h-3.495v94.685h-54.567v2.242
				c-0.925-2.454-1.708-4.96-2.341-7.512C368.476,242.136,367.811,236.853,367.811,231.442z"/>
			<path clip-path="url(#SVGID_2_)" fill="#BE568B" d="M369.674,231.442c0-21.219,10.425-40.428,27.278-54.333
				c8.427-6.953,18.461-12.579,29.604-16.467c1.393-0.486,2.803-0.945,4.229-1.375h-4.136v93.241h-52.788v1.785
				c-0.907-2.406-1.675-4.863-2.295-7.364C370.325,241.926,369.674,236.747,369.674,231.442z"/>
			<path clip-path="url(#SVGID_2_)" fill="#BF578B" d="M371.537,231.442c0-20.794,10.215-39.62,26.732-53.247
				c8.258-6.813,18.092-12.328,29.012-16.138h-0.632v90.449h-51.01v1.328c-0.889-2.358-1.641-4.766-2.249-7.217
				C372.176,241.716,371.537,236.641,371.537,231.442z"/>
			<path clip-path="url(#SVGID_2_)" fill="#C0588B" d="M373.399,231.442c0-20.37,10.007-38.812,26.187-52.16
				c8.09-6.674,17.723-12.076,28.42-15.809h-1.356v89.033h-49.23v0.871c-0.87-2.31-1.608-4.669-2.203-7.069
				C374.024,241.507,373.399,236.534,373.399,231.442z"/>
			<path clip-path="url(#SVGID_2_)" fill="#C1598B" d="M375.262,231.442c0-19.945,9.799-38.003,25.642-51.073
				c7.921-6.536,17.354-11.824,27.827-15.479h-2.081v87.617h-47.451v0.414c-0.853-2.262-1.575-4.571-2.157-6.922
				C375.874,241.297,375.262,236.429,375.262,231.442z"/>
			<path clip-path="url(#SVGID_2_)" fill="#C25A8B" d="M377.125,231.442c0-19.521,9.59-37.194,25.096-49.987
				c7.752-6.396,16.984-11.573,27.235-15.15h-2.807v86.201h-42.792v6.452C379.522,250.501,377.125,241.203,377.125,231.442z"/>
			<path clip-path="url(#SVGID_2_)" fill="#C35B8B" d="M378.987,231.442c0-19.097,9.382-36.386,24.55-48.9
				c7.585-6.257,16.615-11.321,26.644-14.82h-3.531v84.785h-41.075v5.854C381.333,250.087,378.987,240.99,378.987,231.442z"/>
			<path clip-path="url(#SVGID_2_)" fill="#C45C8C" d="M380.85,231.442c0-18.672,9.174-35.577,24.005-47.813
				c7.416-6.118,16.246-11.069,26.052-14.491h-4.257v83.369h-39.358v5.255C383.144,249.673,380.85,240.778,380.85,231.442z"/>
			<path clip-path="url(#SVGID_2_)" fill="#C65D8C" d="M382.713,231.442c0-18.248,8.965-34.769,23.459-46.727
				c7.247-5.979,15.877-10.818,25.459-14.162h-4.981v81.953h-37.643v4.657C384.954,249.258,382.713,240.566,382.713,231.442z"/>
			<path clip-path="url(#SVGID_2_)" fill="#C75E8C" d="M384.575,231.442c0-17.824,8.757-33.96,22.914-45.64
				c7.078-5.84,15.507-10.566,24.866-13.833h-5.706v80.537h-35.926v4.06C386.765,248.844,384.575,240.354,384.575,231.442z"/>
			<path clip-path="url(#SVGID_2_)" fill="#C85F8C" d="M386.438,231.442c0-17.399,8.549-33.151,22.368-44.554
				c6.911-5.701,15.139-10.314,24.275-13.503h-6.432v79.121h-34.21v3.461C388.575,248.43,386.438,240.142,386.438,231.442z"/>
			<path clip-path="url(#SVGID_2_)" fill="#C9608C" d="M388.301,231.442c0-16.975,8.339-32.343,21.822-43.467
				c3.371-2.781,7.063-5.297,11.027-7.506c1.981-1.105,4.031-2.133,6.143-3.08h-0.644v75.117h-32.493v2.862
				C390.386,248.016,388.301,239.93,388.301,231.442z"/>
			<path clip-path="url(#SVGID_2_)" fill="#CA618C" d="M390.163,231.442c0-16.551,8.132-31.534,21.277-42.38
				c3.286-2.711,6.886-5.164,10.751-7.318c1.933-1.077,3.931-2.08,5.989-3.002h-1.531v73.765h-30.777v2.265
				C392.195,247.601,390.163,239.718,390.163,231.442z"/>
			<path clip-path="url(#SVGID_2_)" fill="#CB628D" d="M392.025,231.442c0-16.126,7.923-30.726,20.732-41.293
				c3.201-2.642,6.709-5.032,10.475-7.131c1.883-1.049,3.83-2.026,5.836-2.925h-2.419v72.414h-29.062v1.666
				C394.007,247.187,392.025,239.505,392.025,231.442z"/>
			<path clip-path="url(#SVGID_2_)" fill="#CC638D" d="M393.889,231.442c0-15.702,7.714-29.917,20.186-40.207
				c3.118-2.572,6.533-4.899,10.2-6.943c1.833-1.022,3.729-1.973,5.683-2.848h-3.308v71.063h-27.345v1.068
				C395.817,246.772,393.889,239.293,393.889,231.442z"/>
			<path clip-path="url(#SVGID_2_)" fill="#CE648D" d="M395.751,231.442c0-15.277,7.506-29.108,19.641-39.12
				c3.033-2.503,6.356-4.767,9.924-6.755c1.784-0.995,3.629-1.919,5.528-2.771h-4.194v69.711h-25.628v0.47
				C397.627,246.357,395.751,239.081,395.751,231.442z"/>
			<path clip-path="url(#SVGID_2_)" fill="#CF668D" d="M397.614,231.442c0-14.853,7.297-28.3,19.095-38.033
				c2.949-2.434,6.18-4.635,9.648-6.568c1.733-0.966,3.527-1.866,5.375-2.694h-5.083v68.36h-21.167v4.573
				c-1.004-1.524-1.92-3.093-2.745-4.701C399.438,245.943,397.614,238.868,397.614,231.442z"/>
			<path clip-path="url(#SVGID_2_)" fill="#D0678D" d="M399.477,231.442c0-14.429,7.089-27.491,18.549-36.947
				c2.865-2.364,6.004-4.502,9.373-6.38h-0.749v64.392H407.12v3.841c-0.975-1.48-1.865-3.005-2.667-4.567
				C401.249,245.529,399.477,238.656,399.477,231.442z"/>
			<path clip-path="url(#SVGID_2_)" fill="#D1688D" d="M401.34,231.442c0-14.004,6.879-26.683,18.003-35.86
				c2.781-2.294,5.827-4.37,9.097-6.192h-1.79v63.117h-17.892v3.108c-0.945-1.438-1.811-2.916-2.588-4.433
				C403.06,245.115,401.34,238.444,401.34,231.442z"/>
			<path clip-path="url(#SVGID_2_)" fill="#D2698E" d="M403.202,231.442c0-13.58,6.671-25.874,17.458-34.773
				c2.696-2.225,5.65-4.237,8.821-6.005h-2.832v61.843h-13.268v6.431c-2.143-2.616-3.987-5.412-5.496-8.354
				C404.87,244.7,403.202,238.232,403.202,231.442z"/>
			<path clip-path="url(#SVGID_2_)" fill="#D36A8E" d="M405.064,231.442c0-13.156,6.463-25.065,16.913-33.687
				c2.612-2.155,5.474-4.105,8.545-5.817h-3.873v60.568h-11.724v5.571c-2.075-2.534-3.862-5.242-5.323-8.092
				C406.681,244.286,405.064,238.02,405.064,231.442z"/>
			<path clip-path="url(#SVGID_2_)" fill="#D56B8E" d="M406.928,231.442c0-12.731,6.254-24.257,16.367-32.6
				c2.527-2.086,5.297-3.973,8.27-5.629h-4.915v59.294h-10.179v4.712c-2.008-2.452-3.738-5.073-5.152-7.831
				C408.491,243.872,406.928,237.808,406.928,231.442z"/>
			<path clip-path="url(#SVGID_2_)" fill="#D66C8E" d="M408.79,231.442c0-12.307,6.046-23.449,15.821-31.514
				c2.443-2.016,5.121-3.84,7.994-5.442h-5.956v58.02h-8.634v3.853c-1.941-2.37-3.614-4.904-4.98-7.57
				C410.302,243.458,408.79,237.596,408.79,231.442z"/>
			<path clip-path="url(#SVGID_2_)" fill="#D76D8E" d="M410.652,231.442c0-11.883,5.838-22.64,15.275-30.427
				c2.36-1.947,4.945-3.708,7.72-5.254h-6.998v56.746h-7.09v2.993c-1.874-2.289-3.489-4.734-4.809-7.309
				C412.111,243.043,410.652,237.383,410.652,231.442z"/>
			<path clip-path="url(#SVGID_2_)" fill="#D86E8E" d="M412.516,231.442c0-11.458,5.629-21.832,14.73-29.34h-0.597v50.405h-5.545
				v2.135c-1.808-2.208-3.364-4.566-4.637-7.049C413.923,242.629,412.516,237.171,412.516,231.442z"/>
			<path clip-path="url(#SVGID_2_)" fill="#D96F8F" d="M414.378,231.442c0-11.034,5.421-21.023,14.185-28.253h-1.913v49.318h-4.001
				v1.275c-1.74-2.126-3.239-4.397-4.465-6.787C415.733,242.215,414.378,236.959,414.378,231.442z"/>
			<path clip-path="url(#SVGID_2_)" fill="#DB708F" d="M416.24,231.442c0-10.609,5.213-20.214,13.64-27.167h-3.23v48.231l3.23,6.102
				C421.453,251.656,416.24,242.052,416.24,231.442z"/>
			<path clip-path="url(#SVGID_2_)" fill="#DC718F" d="M418.104,231.442c0-10.185,5.004-19.406,13.094-26.08h-4.548v47.145
				l4.548,5.016C423.107,250.848,418.104,241.627,418.104,231.442z"/>
			<path clip-path="url(#SVGID_2_)" fill="#DD728F" d="M419.966,231.442c0-9.761,4.796-18.597,12.548-24.994h-5.864v46.058
				l5.864,3.929C424.762,250.039,419.966,241.203,419.966,231.442z"/>
			<path clip-path="url(#SVGID_2_)" fill="#DE748F" d="M421.828,231.442c0-4.668,1.147-9.115,3.221-13.16
				c1.037-2.022,2.306-3.944,3.778-5.743h-2.178v37.807h2.178c-1.473-1.799-2.741-3.721-3.778-5.743
				C422.976,240.558,421.828,236.11,421.828,231.442z"/>
			<path clip-path="url(#SVGID_2_)" fill="#DF758F" d="M423.691,231.442c0-4.456,1.095-8.701,3.074-12.562h-0.116v25.124h0.116
				C424.786,240.143,423.691,235.898,423.691,231.442z"/>
			<path clip-path="url(#SVGID_2_)" fill="#E17690" d="M425.554,231.442c0-4.244,1.043-8.287,2.928-11.964h-1.832v23.928h1.832
				C426.597,239.729,425.554,235.686,425.554,231.442z"/>
			<path clip-path="url(#SVGID_2_)" fill="#E27790" d="M426.649,231.442v-29.199V231.442z"/>
			<path clip-path="url(#SVGID_2_)" fill="#E37890" d="M426.649,231.442V203.78V231.442z"/>
			<path clip-path="url(#SVGID_2_)" fill="#E47990" d="M426.649,231.442v-26.125V231.442z"/>
			<path clip-path="url(#SVGID_2_)" fill="#E57A90" d="M426.649,231.442v-24.589V231.442z"/>
			<path clip-path="url(#SVGID_2_)" fill="#E77B90" d="M426.649,231.442v-23.052V231.442z"/>
			<path clip-path="url(#SVGID_2_)" fill="#E87C91" d="M426.649,231.442v-21.515V231.442z"/>
			<path clip-path="url(#SVGID_2_)" fill="#E97D91" d="M426.649,231.442v-19.979V231.442z"/>
			<path clip-path="url(#SVGID_2_)" fill="#EA7F91" d="M426.649,231.442v-18.441V231.442z"/>
			<path clip-path="url(#SVGID_2_)" fill="#EC8091" d="M426.649,231.442v-16.905V231.442z"/>
			<path clip-path="url(#SVGID_2_)" fill="#ED8191" d="M426.649,231.442v-15.368V231.442z"/>
			<path clip-path="url(#SVGID_2_)" fill="#EE8292" d="M426.649,231.442v-13.831V231.442z"/>
			<path clip-path="url(#SVGID_2_)" fill="#EF8392" d="M426.649,231.442v-12.294V231.442z"/>
			<path clip-path="url(#SVGID_2_)" fill="#F18492" d="M426.649,231.442v-10.758V231.442z"/>
			<path clip-path="url(#SVGID_2_)" fill="#F28592" d="M426.649,231.442v-9.221V231.442z"/>
			<path clip-path="url(#SVGID_2_)" fill="#F38692" d="M426.649,231.442v-7.684V231.442z"/>
			<path clip-path="url(#SVGID_2_)" fill="#F48892" d="M426.649,231.442v-6.147V231.442z"/>
			<path clip-path="url(#SVGID_2_)" fill="#F58993" d="M426.649,231.442v-4.61V231.442z"/>
			<path clip-path="url(#SVGID_2_)" fill="#F78A93" d="M426.649,231.442v-3.074V231.442z"/>
			<path clip-path="url(#SVGID_2_)" fill="#F88B93" d="M426.649,231.442v-1.537V231.442z"/>
		</g>
	</g>
	<g>
		
			<linearGradient id="SVGID_3_" gradientUnits="userSpaceOnUse" x1="1.3228" y1="348.7354" x2="-236.2804" y2="317.429" gradientTransform="matrix(0.587 0.5044 -1.1918 0.5778 734.4321 -43.7968)">
			<stop  offset="0" style="stop-color:#FCBA9D"/>
			<stop  offset="0.5634" style="stop-color:#EE8594"/>
			<stop  offset="1" style="stop-color:#E4608D"/>
		</linearGradient>
		<polygon fill="url(#SVGID_3_)" points="425.649,96.523 229.323,191.704 164.826,154.467 		"/>
		
			<linearGradient id="SVGID_4_" gradientUnits="userSpaceOnUse" x1="877.5391" y1="220.0273" x2="1007.6193" y2="201.0689" gradientTransform="matrix(-0.8737 -0.3389 -1.0008 0.6881 1384.7246 332.1381)">
			<stop  offset="0" style="stop-color:#FCBA9D"/>
			<stop  offset="0.5634" style="stop-color:#EE8594"/>
			<stop  offset="1" style="stop-color:#E4608D"/>
		</linearGradient>
		<polygon fill="url(#SVGID_4_)" points="425.649,96.523 260.791,209.872 325.288,247.109 		"/>
		
			<linearGradient id="SVGID_5_" gradientUnits="userSpaceOnUse" x1="207.8242" y1="273.1045" x2="26.1772" y2="197.5137" gradientTransform="matrix(0.866 0.5 -0.866 0.5 440.2673 1.3037)">
			<stop  offset="0" style="stop-color:#F88B93"/>
			<stop  offset="0.2064" style="stop-color:#D76D8E"/>
			<stop  offset="0.5733" style="stop-color:#A23D87"/>
			<stop  offset="0.8491" style="stop-color:#811F82"/>
			<stop  offset="1" style="stop-color:#751480"/>
		</linearGradient>
		<polygon fill="url(#SVGID_5_)" points="260.791,209.872 425.649,96.523 229.323,191.704 245.057,251.507 		"/>
	</g>
	<polygon fill="#FCC29F" points="226.454,190.047 425.649,96.523 229.323,191.704 	"/>
	<polygon fill="#FBA999" points="260.791,209.872 425.649,96.523 263.369,211.361 	"/>
</g>
<polygon opacity="0.4" fill="#0B0244" points="383.856,255.857 206.62,295.231 248.497,319.409 248.497,319.409 250.447,320.535 
	273.858,318.852 285.146,340.569 315.658,358.185 "/>
</svg>
